<svg width="720" height="380" viewBox="0 0 720 380" fill="none" xmlns="http://www.w3.org/2000/svg">
<g clip-path="url(#clip0_1125_1359)">
<path d="M-98.0451 162.426L-98.0452 162.426L-116.772 159.04L-109.373 141.507L-113.058 139.951L-109.373 141.507C-94.7773 106.923 -68.8518 78.3497 -35.8551 60.4826C-0.267755 41.2128 41.1644 35.6828 80.5777 44.9452L89.8934 47.1347L86.6354 56.1326C72.8506 94.2005 45.5748 125.874 9.98751 145.144C-23.0093 163.011 -61.1073 169.105 -98.0451 162.426Z" stroke="black" stroke-width="8"/>
<path d="M-112.591 208.897L-112.591 208.897L-122.807 187.089L-99.2927 181.889L-100.156 177.984L-99.2927 181.889C-54.749 172.039 -8.19495 177.646 32.7185 197.79C76.844 219.516 111.46 256.698 129.993 302.279L134.71 313.884L122.636 317.22C75.208 330.324 24.6313 325.559 -19.4942 303.833C-60.4076 283.688 -93.2375 250.208 -112.591 208.897Z" fill="black" stroke="black" stroke-width="8"/>
</g>
<defs>
<clipPath id="clip0_1125_1359">
<rect width="720" height="414" fill="white" transform="translate(0 -31)"/>
</clipPath>
</defs>
</svg>
