<svg width="693" height="529" viewBox="0 0 693 529" fill="none" xmlns="http://www.w3.org/2000/svg">
<path d="M580.827 327.028C581.164 324.062 581.441 321.067 581.662 318.049C595.608 320.118 607.627 324.924 618.323 332.097C629.383 339.513 639.396 349.704 648.742 362.718C648.575 368.387 648.255 373.825 647.789 379.039C636.879 363.398 624.637 350.51 610.402 340.964C601.237 334.817 591.41 330.165 580.827 327.028Z" fill="black"/>
<path d="M577.451 347.956C576.469 352.897 575.405 357.694 574.262 362.357C580.625 365.046 586.698 368.341 592.506 372.236C610.657 384.407 625.566 402.013 638.608 423.831C640.085 419.657 641.416 415.255 642.592 410.614C629.434 386.839 615.197 369.471 598.606 358.345C592.091 353.976 585.085 350.485 577.451 347.956Z" fill="black"/>
<path d="M495 498.148C525.81 466.773 552.271 433.181 568.501 382.755C572.765 384.718 576.825 387.012 580.71 389.617C597.314 400.752 612.039 424.633 625.353 450.432C597.126 491.865 547.056 498.675 495 498.148Z" fill="black"/>
<path d="M630.119 314.715C615.898 305.178 600.085 299.239 582.327 296.976C581.821 228.677 557.057 153.836 537.511 119.392C565.476 135.401 643.176 257.899 647.92 326.703C647.984 327.64 648.045 328.571 648.103 329.498C642.469 323.935 636.494 318.99 630.119 314.715Z" fill="black"/>
<path d="M101.376 46.4982L86.4499 23.0653L112.58 13.6257C154.39 -1.47899 200.083 -1.89896 242.148 12.4383C287.515 27.9011 325.629 59.4921 349.255 101.217L357.268 115.37L342.28 121.683C298.089 140.294 248.615 142.032 203.248 126.569C161.183 112.232 125.258 83.9935 101.376 46.4982Z" fill="#E42300"/>
<path d="M110.636 264.762L85.8491 258.995L96.897 236.07C114.575 199.386 144.205 169.824 180.92 152.243C220.518 133.282 265.708 129.524 307.912 141.683L322.227 145.808L316.466 159.547C299.478 200.05 268.218 232.899 228.62 251.859C191.905 269.44 150.297 273.989 110.636 264.762Z" fill="black"/>
</svg>
