<svg width="566" height="361" viewBox="0 0 566 361" fill="none" xmlns="http://www.w3.org/2000/svg">
<g style="mix-blend-mode:multiply">
<path d="M288.468 175.611H566L536.823 272.601C521.099 324.867 476.956 360.122 427.234 360.122C377.512 360.122 333.369 324.867 317.646 272.601L288.468 175.611Z" fill="#DDDDDD"/>
<path d="M0.916262 25.4092L0 0.121582L22.6819 4.67074C58.9754 11.9496 91.9191 32.567 116.097 63.1372C142.174 96.1074 156.312 138.448 155.827 182.122L155.662 196.936L142.276 195.034C102.811 189.424 66.6052 168.11 40.5288 135.14C16.3506 104.569 2.3821 65.8723 0.916262 25.4092Z" fill="#DDDDDD"/>
<path d="M51.1362 350.203L28.8915 343.543L39.6775 321.175C56.936 285.383 84.773 257.117 118.616 241.023C155.115 223.665 196.158 221.625 233.954 235.292L246.774 239.928L241.088 253.364C224.324 292.977 194.899 324.448 158.399 341.806C124.557 357.9 86.7301 360.86 51.1362 350.203Z" fill="#DDDDDD"/>
</g>
</svg>
