<svg width="110" height="115" viewBox="0 0 110 115" fill="none" xmlns="http://www.w3.org/2000/svg">
<path d="M14.8974 101.538L14.8974 101.538L8.61614 93.925L17.4183 89.4607L16.5137 87.677L17.4183 89.4607C34.6623 80.7148 54.3632 78.1012 73.2836 82.0506C93.6895 86.31 111.824 97.9173 124.243 114.671L127.216 118.681L122.887 121.167C104.803 131.553 83.5393 134.937 63.1335 130.678C44.213 126.728 27.2027 116.452 14.8974 101.538Z" stroke="black" stroke-width="4"/>
<path d="M78.6603 26.3292L78.6603 26.3292L78.517 17.7717L86.8987 19.5034L86.8988 19.5034C103.78 22.991 118.965 32.1189 129.959 45.3877C141.816 59.6982 148.005 77.8681 147.351 96.449L147.202 100.671L143.026 100.032C124.647 97.2208 107.945 87.7615 96.0882 73.4509C85.0945 60.1821 78.9488 43.5644 78.6603 26.3292Z" fill="black" stroke="black" stroke-width="4"/>
</svg>
