<svg width="109" height="108" viewBox="0 0 109 108" fill="none" xmlns="http://www.w3.org/2000/svg">
<path d="M18.6183 119.364L18.6183 119.364L16.1417 125.954L23.1135 126.929L23.1135 126.929C37.7777 128.981 52.6982 125.98 65.4229 118.419C79.1466 110.264 89.3994 97.3511 94.2342 82.1298L95.2438 78.9508L91.969 78.3177C76.2886 75.2866 60.045 78.1177 46.3213 86.2724C33.5966 93.8335 23.8273 105.503 18.6183 119.364Z" fill="black" stroke="black" stroke-width="4"/>
<path d="M-0.956224 110.328L-0.956217 110.328L3.5408 118.176L10.2151 112.071L10.2151 112.071C23.509 99.9123 32.2642 83.5955 35.0409 65.8017C38.0357 46.6109 33.8775 26.9851 23.3542 10.6498L20.912 6.85901L17.4309 9.72546C2.43088 22.0778 -7.50931 39.5035 -10.5041 58.6943C-13.2808 76.4881 -9.91344 94.6967 -0.956224 110.328Z" stroke="black" stroke-width="4"/>
</svg>
