<svg width="720" height="380" viewBox="0 0 720 380" fill="none" xmlns="http://www.w3.org/2000/svg">
<g clip-path="url(#clip0_1125_1362)">
<path d="M696.616 -29.5197L696.616 -29.5197L705.41 -40.3944L692.876 -46.5976L692.876 -46.5976C666.468 -59.6661 636.409 -63.3534 607.638 -57.0518C576.608 -50.2556 549.149 -32.2967 530.476 -6.58206L526.588 -1.22857L532.357 2.00998C560.07 17.565 592.521 22.4023 623.551 15.6061C652.323 9.30453 678.089 -6.60958 696.616 -29.5197Z" fill="black" stroke="black" stroke-width="8"/>
<path d="M729.144 -8.47424L729.144 -8.47427L724.283 -25.7812L708.458 -17.2534L708.458 -17.2534C676.899 -0.247057 652.079 26.9877 638.078 59.9765C622.978 95.5553 621.47 135.448 633.843 172.082L636.708 180.563L644.799 176.731C679.744 160.18 707.39 131.381 722.49 95.8023C736.491 62.8135 738.837 26.0402 729.144 -8.47424Z" stroke="black" stroke-width="8"/>
</g>
<defs>
<clipPath id="clip0_1125_1362">
<rect width="720" height="414" fill="white" transform="translate(0 -31)"/>
</clipPath>
</defs>
</svg>
