<svg width="720" height="414" viewBox="0 0 720 414" fill="none" xmlns="http://www.w3.org/2000/svg">
<g clip-path="url(#clip0_914_1603)">
<path d="M-98.0451 193.426L-98.0452 193.426L-116.772 190.04L-109.373 172.507L-113.058 170.951L-109.373 172.507C-94.7773 137.923 -68.8518 109.35 -35.8551 91.4826C-0.267755 72.2128 41.1644 66.6828 80.5777 75.9452L89.8934 78.1347L86.6354 87.1326C72.8506 125.201 45.5748 156.874 9.98751 176.144C-23.0093 194.011 -61.1073 200.105 -98.0451 193.426Z" stroke="black" stroke-width="8"/>
<path d="M-112.591 239.897L-112.591 239.897L-122.807 218.089L-99.2927 212.889L-100.156 208.984L-99.2927 212.889C-54.749 203.039 -8.19495 208.646 32.7185 228.79C76.844 250.516 111.46 287.698 129.993 333.279L134.71 344.884L122.636 348.22C75.208 361.324 24.6313 356.559 -19.4942 334.833C-60.4076 314.688 -93.2375 281.208 -112.591 239.897Z" stroke="black" stroke-width="8"/>
</g>
<defs>
<clipPath id="clip0_914_1603">
<rect width="720" height="414" fill="white"/>
</clipPath>
</defs>
</svg>
