<svg width="720" height="414" viewBox="0 0 720 414" fill="none" xmlns="http://www.w3.org/2000/svg">
<g clip-path="url(#clip0_914_497)">
<path d="M0.101474 423.329L0.101447 423.329L-11.9552 430.594L-16.4074 417.241L-16.4075 417.241C-25.7727 389.152 -25.296 358.722 -15.054 330.952C-4.00795 301.002 17.6566 276.148 45.8294 261.107L51.7127 257.967L54.1479 264.176C65.8082 293.907 66.1461 326.876 55.1001 356.826C44.8581 384.596 25.4624 408.048 0.101474 423.329Z" stroke="#E42300" stroke-width="8"/>
<path d="M30.6351 463.471L30.635 463.471L12.525 459.061L20.7889 442.354L20.7889 442.354C37.1531 409.27 64.2843 382.752 97.725 367.159C133.791 350.343 174.784 347.357 212.924 358.772L221.872 361.45L218.171 370.026C202.397 406.579 173.758 436.06 137.692 452.876C104.251 468.469 66.4973 472.204 30.6351 463.471Z" stroke="black" stroke-width="8"/>
</g>
<defs>
<clipPath id="clip0_914_497">
<rect width="720" height="414" fill="white"/>
</clipPath>
</defs>
</svg>
