<svg width="20" height="8" viewBox="0 0 20 8" fill="none" xmlns="http://www.w3.org/2000/svg">
<path d="M0.112636 1.10015L0 0L1.10013 0.112658C2.8605 0.292877 4.49645 1.06788 5.73905 2.31048C7.0792 3.65063 7.87228 5.44494 7.96766 7.35285L8 8L7.35285 7.96766C5.44494 7.87228 3.65063 7.0792 2.31048 5.73905C1.06788 4.49645 0.292855 2.86052 0.112636 1.10015Z" fill="#E42300"/>
<path d="M18.8998 0.112636L20 3.49692e-07L19.8873 1.10013C19.7071 2.8605 18.9321 4.49645 17.6895 5.73905C16.3494 7.0792 14.5551 7.87228 12.6472 7.96766L12 8L12.0323 7.35285C12.1277 5.44494 12.9208 3.65063 14.2609 2.31048C15.5035 1.06788 17.1395 0.292856 18.8998 0.112636Z" fill="#E42300"/>
</svg>
