<svg width="720" height="414" viewBox="0 0 720 414" fill="none" xmlns="http://www.w3.org/2000/svg">
<g clip-path="url(#clip0_914_1606)">
<path d="M794.592 172.82L794.592 172.82L817.376 168.701L808.373 147.369L812.058 145.814L808.373 147.369C791.213 106.709 760.731 73.1135 721.936 52.1065C680.094 29.4502 631.381 22.9484 585.042 33.8385L573.377 36.5801L577.456 47.8472C593.664 92.605 625.733 129.845 667.574 152.501C706.37 173.508 751.163 180.673 794.592 172.82Z" stroke="black" stroke-width="8"/>
<path d="M864.414 232.452L864.414 232.452L876.873 213.694L855.845 205.639L857.275 201.904L855.845 205.639C815.58 190.216 771.279 188.96 730.223 202.083C685.943 216.235 648.396 246.162 624.711 286.185L618.798 296.178L629.411 300.889C671.918 319.757 719.861 322.36 764.141 308.207C805.198 295.085 840.559 268.369 864.414 232.452Z" stroke="black" stroke-width="8"/>
</g>
<defs>
<clipPath id="clip0_914_1606">
<rect width="720" height="414" fill="white"/>
</clipPath>
</defs>
</svg>
