<svg width="720" height="414" viewBox="0 0 720 414" fill="none" xmlns="http://www.w3.org/2000/svg">
<g clip-path="url(#clip0_914_500)">
<path d="M808.718 193.426L808.718 193.426L827.445 190.04L820.045 172.507L823.731 170.951L820.045 172.507C805.45 137.923 779.525 109.35 746.528 91.4826C710.941 72.2128 669.508 66.6828 630.095 75.9451L620.779 78.1346L624.037 87.1326C637.822 125.201 665.098 156.874 700.685 176.144C733.682 194.011 771.78 200.105 808.718 193.426Z" stroke="black" stroke-width="8"/>
<path d="M823.263 239.897L823.263 239.897L833.48 218.089L809.966 212.889L810.829 208.984L809.966 212.889C765.422 203.039 718.868 208.646 677.954 228.79C633.829 250.516 599.213 287.698 580.68 333.279L575.962 344.884L588.037 348.22C635.465 361.324 686.042 356.559 730.167 334.833C771.08 314.688 803.91 281.208 823.263 239.897Z" stroke="#E42300" stroke-width="8"/>
</g>
<defs>
<clipPath id="clip0_914_500">
<rect width="720" height="414" fill="white"/>
</clipPath>
</defs>
</svg>
