<svg width="151" height="56" viewBox="0 0 151 56" fill="none" xmlns="http://www.w3.org/2000/svg">
<path fill-rule="evenodd" clip-rule="evenodd" d="M108.338 17.855L102.483 22.0742H104.554V26.7189C104.59 27.9954 105.803 28.5392 105.803 28.5392L109.801 27.0499C108.492 27.1563 108.338 25.8445 108.338 25.8445V22.0742H110.503V20.0651H108.338V17.855Z" fill="#E42300"/>
<path fill-rule="evenodd" clip-rule="evenodd" d="M116.173 21.5742C114.903 25.4203 117.953 26.4125 117.953 26.4125C119.713 22.9633 116.173 21.5742 116.173 21.5742ZM120.964 21.2429C120.964 21.2429 121.926 21.9235 122.379 23.2467C122.379 23.2467 122.792 24.1915 122.263 25.354C122.263 25.354 121.609 26.6298 120.743 27.121C120.743 27.121 119.376 28.1421 117.501 28.539C117.501 28.539 111.747 27.8964 111.651 23.8798C111.651 23.8798 111.555 22.7268 112.546 21.687C112.546 21.687 113.7 20.364 117.26 19.5418C117.26 19.5418 119.54 20.0332 120.964 21.2429Z" fill="#E42300"/>
<path fill-rule="evenodd" clip-rule="evenodd" d="M141.406 24.3036L143.487 23.4027L142.07 21.8183C142.07 21.8183 140.38 23.0515 141.406 24.3036ZM147.738 23.3358L142.412 25.6125C142.412 25.6125 144.142 27.4148 147.561 25.3471L145.929 28.0783C145.929 28.0783 140.604 29.8523 138.162 26.438C138.162 26.438 137.155 25.3471 137.497 23.4499C137.497 23.4499 137.986 22.0556 138.865 21.3442C138.865 21.3442 140.135 19.9687 144.562 19.5418L147.738 23.3358Z" fill="#E42300"/>
<path fill-rule="evenodd" clip-rule="evenodd" d="M127.67 19.8843L123.811 21.2101C125.037 21.5326 124.964 22.5715 124.964 22.5715V27.0146C124.964 28.0536 125.995 28.854 125.995 28.854L129.83 27.4324C128.799 27.3249 128.75 26.4414 128.75 26.4414V22.9538L130.133 22.464C130.716 22.6672 130.934 23.5152 130.934 23.5152V26.8714C130.897 28.0658 132.148 28.8661 132.148 28.8661L136.079 27.4808C134.926 27.3249 134.683 26.3458 134.683 26.3458V21.9865C134.21 20.195 132.511 19.9203 132.511 19.9203L128.604 21.2817C128.373 20.2666 127.67 19.8843 127.67 19.8843Z" fill="#E42300"/>
<path fill-rule="evenodd" clip-rule="evenodd" d="M62.8743 16.8148C62.4254 17.5315 60.8724 17.9017 60.8724 17.9017C60.7027 18.0926 58.7608 17.854 58.7608 17.854C55.7882 17.2687 54.2472 17.2449 54.2472 17.2449C49.3206 17.4958 49.9152 22.1057 49.782 21.9625C51.8813 20.5175 54.1381 20.8041 54.1381 20.8041C52.9128 22.548 52.7789 24.2797 52.7789 24.2797C52.7061 25.3186 53.665 28.9494 53.5801 29.2719C53.5678 30.6099 52.6701 31.3502 52.6701 31.3502C58.8825 31.422 57.4142 25.8802 57.4142 25.8802C58.2152 24.674 59.4768 26.0834 59.4768 26.0834L60.6299 23.2408C58.4578 21.8432 56.8559 23.7783 56.8559 23.7783C56.4555 22.3564 56.8194 21.0786 56.8194 21.0786C63.6026 21.8432 62.8743 16.8148 62.8743 16.8148Z" fill="#E42300"/>
<path fill-rule="evenodd" clip-rule="evenodd" d="M66.228 19.5424L62.3844 21.0318C63.6074 21.318 63.6074 23.2008 63.6074 23.2008V26.3944C63.7823 28.2299 65.0748 28.5396 65.0748 28.5396L68.6857 27.1452C67.6371 26.8355 67.4161 25.4767 67.4161 25.4767V21.2822C67.509 20.3408 66.228 19.5424 66.228 19.5424Z" fill="#E42300"/>
<path fill-rule="evenodd" clip-rule="evenodd" d="M74.3711 21.0437C74.4695 20.1021 73.3117 19.5424 73.3117 19.5424L69.2585 21.0319C70.5399 21.3181 70.5399 23.2011 70.5399 23.2011V26.3947C70.7368 28.23 72.1044 28.5396 72.1044 28.5396L75.9234 27.1456C74.7035 27.1456 74.5682 25.5009 74.5682 25.5009L74.5804 23.0698L75.2579 22.8074L76.465 24.5952L79.5697 22.9745L77.6481 19.7209C77.3026 19.4705 77.0074 19.7089 77.0074 19.7089L74.3711 21.0437Z" fill="#E42300"/>
<path fill-rule="evenodd" clip-rule="evenodd" d="M86.1747 23.438L84.8385 21.8171C83.0948 22.9337 84.0099 24.399 84.0099 24.399L86.1747 23.438ZM90.4536 23.3361L85.1282 25.6126C85.1282 25.6126 86.8582 27.4146 90.2781 25.3469L88.6462 28.0784C88.6462 28.0784 83.3204 29.8524 80.8777 26.4374C80.8777 26.4374 79.8717 25.3469 80.2132 23.4498C80.2132 23.4498 80.702 22.0554 81.5813 21.344C81.5813 21.344 82.8519 19.9685 87.2781 19.5418L90.4536 23.3361Z" fill="#E42300"/>
<path fill-rule="evenodd" clip-rule="evenodd" d="M96.7483 19.6565L92.3815 22.2383C91.8709 22.9629 92.4545 23.3949 92.4545 23.3949L96.7972 25.9422C97.1501 26.2692 96.9673 26.5727 96.9064 26.6663C96.6025 27.0167 96.1282 26.783 96.1282 26.783L93.4644 25.1712L92.211 26.1874L96.4201 28.4306C96.7847 28.6759 97.2592 28.4306 97.2592 28.4306L101.639 26.0005C102.271 25.5449 101.602 24.7386 101.602 24.7386L97.3323 22.1101C97.1138 21.8179 97.2226 21.6425 97.2835 21.5256C97.5268 21.2219 97.9161 21.3855 97.9161 21.3855L100.495 22.8459L101.772 21.8997L97.5027 19.6565C97.1256 19.3997 96.7483 19.6565 96.7483 19.6565Z" fill="#E42300"/>
<path d="M47.6709 33.3939H150.271V34.2228H47.6709V33.3939Z" fill="#E42300"/>
<path d="M50.3969 36.0001H51.525L53.7476 39.5148H53.7611V36.0001H54.6123V40.6952H53.5314L51.2616 37.0678H51.2481V40.6952H50.3969V36.0001Z" fill="black"/>
<path d="M57.3029 36.0001H58.0392L60.0997 40.6952H59.1269L58.681 39.6209H56.6071L56.1747 40.6952H55.2222L57.3029 36.0001ZM58.3838 38.9047L57.6474 36.9948L56.8976 38.9047H58.3838Z" fill="black"/>
<path d="M61.2717 36.7296H59.8057V36.0001H63.5888V36.7296H62.1229V40.6952H61.2717V36.7296Z" fill="black"/>
<path d="M68.0905 38.971C68.0905 39.254 68.0409 39.5104 67.9418 39.7403C67.8428 39.9658 67.7076 40.1581 67.5365 40.3173C67.3654 40.4764 67.1627 40.6002 66.9285 40.6886C66.6943 40.7726 66.4398 40.8146 66.1651 40.8146C65.8904 40.8146 65.6359 40.7726 65.4017 40.6886C65.1675 40.6002 64.9626 40.4764 64.787 40.3173C64.6159 40.1581 64.4807 39.9658 64.3817 39.7403C64.2871 39.5104 64.2398 39.254 64.2398 38.971V36.0001H65.091V38.9379C65.091 39.0749 65.109 39.212 65.145 39.349C65.1811 39.4817 65.2396 39.601 65.3207 39.7071C65.4062 39.8133 65.5166 39.8995 65.6517 39.9658C65.7913 40.0321 65.9625 40.0653 66.1651 40.0653C66.3678 40.0653 66.5367 40.0321 66.6718 39.9658C66.8114 39.8995 66.9217 39.8133 67.0028 39.7071C67.0884 39.601 67.1492 39.4817 67.1852 39.349C67.2212 39.212 67.2393 39.0749 67.2393 38.9379V36.0001H68.0905V38.971Z" fill="black"/>
<path d="M69.238 36.0001H70.8999C71.1251 36.0001 71.3435 36.0244 71.5552 36.073C71.7668 36.1172 71.9537 36.1924 72.1159 36.2985C72.2825 36.4046 72.4154 36.5439 72.5144 36.7163C72.6135 36.8887 72.6631 37.0987 72.6631 37.3463C72.6631 37.6867 72.564 37.9653 72.3658 38.1819C72.1722 38.3941 71.9064 38.5378 71.5687 38.6129L72.8455 40.6952H71.8186L70.7107 38.7058H70.0892V40.6952H69.238V36.0001ZM70.785 38.0227C70.9066 38.0227 71.0282 38.0139 71.1498 37.9962C71.2714 37.9785 71.3795 37.9454 71.4741 37.8967C71.5732 37.8481 71.6542 37.7796 71.7173 37.6911C71.7803 37.5983 71.8119 37.4811 71.8119 37.3397C71.8119 37.2115 71.7826 37.1076 71.724 37.028C71.6655 36.944 71.5912 36.8777 71.5011 36.829C71.411 36.7804 71.3075 36.7472 71.1904 36.7296C71.0778 36.7119 70.9674 36.703 70.8593 36.703H70.0892V38.0227H70.785Z" fill="black"/>
<path d="M75.1215 36.0001H75.8578L77.9183 40.6952H76.9455L76.4996 39.6209H74.4256L73.9933 40.6952H73.0407L75.1215 36.0001ZM76.2023 38.9047L75.466 36.9948L74.7161 38.9047H76.2023Z" fill="black"/>
<path d="M78.5266 36.0001H79.3778V39.9525H81.4113V40.6952H78.5266V36.0001Z" fill="black"/>
<path d="M83.7712 36.0001H85.433C85.6582 36.0001 85.8766 36.0244 86.0883 36.073C86.3 36.1172 86.4869 36.1924 86.649 36.2985C86.8157 36.4046 86.9485 36.5439 87.0476 36.7163C87.1467 36.8887 87.1962 37.0987 87.1962 37.3463C87.1962 37.6867 87.0971 37.9653 86.899 38.1819C86.7053 38.3941 86.4396 38.5378 86.1018 38.6129L87.3786 40.6952H86.3518L85.2439 38.7058H84.6224V40.6952H83.7712V36.0001ZM85.3182 38.0227C85.4398 38.0227 85.5614 38.0139 85.683 37.9962C85.8046 37.9785 85.9127 37.9454 86.0072 37.8967C86.1063 37.8481 86.1874 37.7796 86.2504 37.6911C86.3135 37.5983 86.345 37.4811 86.345 37.3397C86.345 37.2115 86.3158 37.1076 86.2572 37.028C86.1987 36.944 86.1243 36.8777 86.0343 36.829C85.9442 36.7804 85.8406 36.7472 85.7235 36.7296C85.6109 36.7119 85.5006 36.703 85.3925 36.703H84.6224V38.0227H85.3182Z" fill="black"/>
<path d="M91.965 38.971C91.965 39.254 91.9155 39.5104 91.8164 39.7403C91.7173 39.9658 91.5822 40.1581 91.4111 40.3173C91.2399 40.4764 91.0372 40.6002 90.8031 40.6886C90.5689 40.7726 90.3144 40.8146 90.0397 40.8146C89.765 40.8146 89.5105 40.7726 89.2763 40.6886C89.0421 40.6002 88.8372 40.4764 88.6615 40.3173C88.4904 40.1581 88.3553 39.9658 88.2562 39.7403C88.1616 39.5104 88.1143 39.254 88.1143 38.971V36.0001H88.9655V38.9379C88.9655 39.0749 88.9836 39.212 89.0196 39.349C89.0556 39.4817 89.1142 39.601 89.1952 39.7071C89.2808 39.8133 89.3912 39.8995 89.5263 39.9658C89.6659 40.0321 89.837 40.0653 90.0397 40.0653C90.2423 40.0653 90.4112 40.0321 90.5463 39.9658C90.686 39.8995 90.7963 39.8133 90.8774 39.7071C90.9629 39.601 91.0237 39.4817 91.0598 39.349C91.0958 39.212 91.1138 39.0749 91.1138 38.9379V36.0001H91.965V38.971Z" fill="black"/>
<path d="M93.1126 36.0001H94.9771C95.1572 36.0001 95.3351 36.0222 95.5108 36.0664C95.6864 36.1062 95.8418 36.1747 95.9769 36.272C96.1165 36.3648 96.2291 36.4864 96.3147 36.6367C96.4003 36.787 96.443 36.9683 96.443 37.1805C96.443 37.4458 96.3665 37.6646 96.2134 37.837C96.0602 38.0095 95.8598 38.1333 95.6121 38.2084V38.2217C95.9139 38.2615 96.1616 38.3764 96.3552 38.5665C96.5489 38.7566 96.6457 39.0108 96.6457 39.3291C96.6457 39.5856 96.5939 39.8022 96.4903 39.979C96.3868 40.1515 96.2494 40.2907 96.0782 40.3968C95.9116 40.5029 95.718 40.5803 95.4973 40.6289C95.2811 40.6731 95.0604 40.6952 94.8352 40.6952H93.1126V36.0001ZM93.9638 37.91H94.7204C95.0041 37.91 95.2203 37.8547 95.3689 37.7442C95.5175 37.6337 95.5919 37.4767 95.5919 37.2734C95.5919 37.0611 95.5153 36.9108 95.3622 36.8224C95.209 36.734 94.9703 36.6898 94.6461 36.6898H93.9638V37.91ZM93.9638 39.9923H94.7271C94.8352 39.9923 94.9523 39.9857 95.0784 39.9724C95.2045 39.9547 95.3194 39.9216 95.423 39.8729C95.5311 39.8243 95.6189 39.7536 95.6864 39.6607C95.7585 39.5679 95.7945 39.4441 95.7945 39.2894C95.7945 39.0418 95.7089 38.8694 95.5378 38.7721C95.3667 38.6748 95.1077 38.6262 94.7609 38.6262H93.9638V39.9923Z" fill="black"/>
<path d="M97.6216 36.0001H99.4862C99.6663 36.0001 99.8442 36.0222 100.02 36.0664C100.195 36.1062 100.351 36.1747 100.486 36.272C100.626 36.3648 100.738 36.4864 100.824 36.6367C100.909 36.787 100.952 36.9683 100.952 37.1805C100.952 37.4458 100.876 37.6646 100.722 37.837C100.569 38.0095 100.369 38.1333 100.121 38.2084V38.2217C100.423 38.2615 100.671 38.3764 100.864 38.5665C101.058 38.7566 101.155 39.0108 101.155 39.3291C101.155 39.5856 101.103 39.8022 100.999 39.979C100.896 40.1515 100.758 40.2907 100.587 40.3968C100.421 40.5029 100.227 40.5803 100.006 40.6289C99.7902 40.6731 99.5695 40.6952 99.3443 40.6952H97.6216V36.0001ZM98.4728 37.91H99.2294C99.5132 37.91 99.7294 37.8547 99.878 37.7442C100.027 37.6337 100.101 37.4767 100.101 37.2734C100.101 37.0611 100.024 36.9108 99.8712 36.8224C99.7181 36.734 99.4794 36.6898 99.1551 36.6898H98.4728V37.91ZM98.4728 39.9923H99.2362C99.3443 39.9923 99.4614 39.9857 99.5875 39.9724C99.7136 39.9547 99.8284 39.9216 99.932 39.8729C100.04 39.8243 100.128 39.7536 100.195 39.6607C100.268 39.5679 100.304 39.4441 100.304 39.2894C100.304 39.0418 100.218 38.8694 100.047 38.7721C99.8757 38.6748 99.6168 38.6262 99.27 38.6262H98.4728V39.9923Z" fill="black"/>
<path d="M102.131 36.0001H105.299V36.7296H102.982V37.9233H105.177V38.6262H102.982V39.9525H105.421V40.6952H102.131V36.0001Z" fill="black"/>
<path d="M106.389 36.0001H108.051C108.276 36.0001 108.495 36.0244 108.706 36.073C108.918 36.1172 109.105 36.1924 109.267 36.2985C109.434 36.4046 109.566 36.5439 109.666 36.7163C109.765 36.8887 109.814 37.0987 109.814 37.3463C109.814 37.6867 109.715 37.9653 109.517 38.1819C109.323 38.3941 109.058 38.5378 108.72 38.6129L109.997 40.6952H108.97L107.862 38.7058H107.24V40.6952H106.389V36.0001ZM107.936 38.0227C108.058 38.0227 108.179 38.0139 108.301 37.9962C108.423 37.9785 108.531 37.9454 108.625 37.8967C108.724 37.8481 108.805 37.7796 108.868 37.6911C108.931 37.5983 108.963 37.4811 108.963 37.3397C108.963 37.2115 108.934 37.1076 108.875 37.028C108.817 36.944 108.742 36.8777 108.652 36.829C108.562 36.7804 108.459 36.7472 108.341 36.7296C108.229 36.7119 108.118 36.703 108.01 36.703H107.24V38.0227H107.936Z" fill="black"/>
<path d="M116.049 37.1009C115.923 36.9329 115.758 36.8114 115.556 36.7362C115.353 36.6566 115.155 36.6168 114.961 36.6168C114.714 36.6168 114.488 36.661 114.286 36.7495C114.083 36.8379 113.907 36.9595 113.759 37.1142C113.615 37.2689 113.502 37.4502 113.421 37.658C113.344 37.8658 113.306 38.0913 113.306 38.3344C113.306 38.5908 113.344 38.8251 113.421 39.0374C113.498 39.2496 113.606 39.433 113.745 39.5878C113.889 39.7381 114.061 39.8553 114.259 39.9393C114.457 40.0233 114.68 40.0653 114.927 40.0653C115.184 40.0653 115.412 40.0166 115.61 39.9194C115.808 39.8177 115.968 39.685 116.089 39.5215L116.772 39.9923C116.56 40.2531 116.301 40.4565 115.995 40.6024C115.689 40.7439 115.331 40.8146 114.921 40.8146C114.547 40.8146 114.202 40.7549 113.887 40.6356C113.576 40.5118 113.308 40.3416 113.083 40.1249C112.858 39.9039 112.682 39.643 112.556 39.3424C112.43 39.0374 112.367 38.7014 112.367 38.3344C112.367 37.9586 112.432 37.6204 112.563 37.3198C112.698 37.0147 112.881 36.7561 113.11 36.5439C113.344 36.3317 113.619 36.1681 113.934 36.0531C114.25 35.9382 114.592 35.8807 114.961 35.8807C115.114 35.8807 115.274 35.8962 115.441 35.9271C115.608 35.9537 115.767 35.9979 115.921 36.0598C116.074 36.1172 116.218 36.1902 116.353 36.2786C116.488 36.367 116.603 36.4731 116.697 36.5969L116.049 37.1009Z" fill="black"/>
<path d="M117.127 38.3344C117.127 37.9586 117.19 37.6204 117.316 37.3198C117.447 37.0147 117.625 36.7561 117.85 36.5439C118.079 36.3317 118.35 36.1681 118.66 36.0531C118.976 35.9382 119.318 35.8807 119.687 35.8807C120.061 35.8807 120.406 35.9382 120.721 36.0531C121.036 36.1681 121.309 36.3317 121.538 36.5439C121.768 36.7561 121.946 37.0147 122.072 37.3198C122.203 37.6204 122.268 37.9586 122.268 38.3344C122.268 38.7014 122.203 39.0374 122.072 39.3424C121.946 39.643 121.768 39.9039 121.538 40.1249C121.309 40.3416 121.036 40.5118 120.721 40.6356C120.406 40.7549 120.061 40.8146 119.687 40.8146C119.318 40.8146 118.976 40.7549 118.66 40.6356C118.35 40.5118 118.079 40.3416 117.85 40.1249C117.625 39.9039 117.447 39.643 117.316 39.3424C117.19 39.0374 117.127 38.7014 117.127 38.3344ZM118.052 38.3344C118.052 38.5864 118.091 38.8185 118.167 39.0307C118.248 39.2385 118.361 39.4198 118.505 39.5745C118.654 39.7293 118.827 39.8508 119.025 39.9393C119.228 40.0233 119.451 40.0653 119.694 40.0653C119.937 40.0653 120.16 40.0233 120.363 39.9393C120.565 39.8508 120.739 39.7293 120.883 39.5745C121.032 39.4198 121.144 39.2385 121.221 39.0307C121.302 38.8185 121.342 38.5864 121.342 38.3344C121.342 38.0913 121.302 37.8658 121.221 37.658C121.144 37.4502 121.034 37.2689 120.89 37.1142C120.746 36.9595 120.572 36.8379 120.37 36.7495C120.167 36.661 119.942 36.6168 119.694 36.6168C119.446 36.6168 119.221 36.661 119.018 36.7495C118.82 36.8379 118.649 36.9595 118.505 37.1142C118.361 37.2689 118.248 37.4502 118.167 37.658C118.091 37.8658 118.052 38.0913 118.052 38.3344Z" fill="black"/>
<path d="M123.225 36.0001H124.556L125.799 39.3358H125.819L127.048 36.0001H128.386V40.6952H127.541V36.9219H127.528L126.076 40.6952H125.481L124.049 36.9219H124.035V40.6952H123.225V36.0001Z" fill="black"/>
<path d="M129.574 36.0001H131.135C131.41 36.0001 131.657 36.0244 131.878 36.073C132.099 36.1217 132.288 36.2013 132.445 36.3118C132.603 36.4223 132.725 36.5638 132.81 36.7362C132.896 36.9086 132.939 37.1164 132.939 37.3596C132.939 37.6204 132.889 37.8393 132.79 38.0161C132.691 38.1929 132.556 38.3366 132.385 38.4471C132.218 38.5532 132.022 38.6306 131.797 38.6792C131.572 38.7279 131.333 38.7522 131.081 38.7522H130.426V40.6952H129.574V36.0001ZM131.02 38.0493C131.16 38.0493 131.293 38.0404 131.419 38.0227C131.545 38.0006 131.657 37.9653 131.756 37.9166C131.855 37.8636 131.934 37.7928 131.993 37.7044C132.051 37.616 132.081 37.501 132.081 37.3596C132.081 37.2225 132.051 37.112 131.993 37.028C131.934 36.9396 131.855 36.871 131.756 36.8224C131.662 36.7738 131.551 36.7428 131.425 36.7296C131.304 36.7119 131.178 36.703 131.047 36.703H130.426V38.0493H131.02Z" fill="black"/>
<path d="M134.93 36.0001H135.666L137.727 40.6952H136.754L136.308 39.6209H134.234L133.802 40.6952H132.849L134.93 36.0001ZM136.011 38.9047L135.275 36.9948L134.525 38.9047H136.011Z" fill="black"/>
<path d="M138.335 36.0001H139.463L141.686 39.5148H141.699V36.0001H142.551V40.6952H141.47L139.2 37.0678H139.186V40.6952H138.335V36.0001Z" fill="black"/>
<path d="M144.897 38.6594L143.1 36.0001H144.14L145.343 37.9763L146.559 36.0001H147.545L145.748 38.6594V40.6952H144.897V38.6594Z" fill="black"/>
<path d="M47.6709 42.4725H150.271V43.3015H47.6709V42.4725Z" fill="#E42300"/>
<path fill-rule="evenodd" clip-rule="evenodd" d="M20.1342 0.144714L20.3269 0.475733C21.2047 1.9837 21.7025 4.21839 21.2048 5.92823C20.8017 7.3133 20.0274 8.34279 18.9728 9.74511C18.8657 9.88752 18.7557 10.0338 18.6429 10.1846L18.3782 10.5386L18.0835 10.2082C17.3767 9.41574 17.0359 8.4128 16.8683 7.50003C16.7009 6.58825 16.7009 5.73372 16.7009 5.21535V5.20973C16.7009 4.37541 17.1814 3.36922 17.7746 2.50078C18.3749 1.62203 19.144 0.806944 19.8133 0.359366L20.1342 0.144714ZM18.3708 2.8932C17.7961 3.73446 17.4187 4.5934 17.4187 5.20973C17.4187 5.72811 17.4193 6.52859 17.5747 7.37504C17.7039 8.07897 17.9365 8.79217 18.347 9.39052L18.3796 9.34708C19.4543 7.91622 20.1489 6.99129 20.5147 5.73466C20.9095 4.37806 20.5798 2.55055 19.8961 1.18207C19.3954 1.59336 18.8358 2.21249 18.3708 2.8932Z" fill="black"/>
<path fill-rule="evenodd" clip-rule="evenodd" d="M27.4802 4.79105L27.2924 4.54526L27.0188 4.69447C25.0742 5.75499 23.535 7.04456 22.4387 9.19686C21.8172 10.4171 21.4861 11.4951 21.3686 12.6978C21.2519 13.8919 21.3474 15.1954 21.5592 16.8586L21.6063 17.2282L21.9795 17.1616C24.4599 16.7189 26.4393 14.7404 27.5244 12.184C28.0478 10.9509 28.2065 9.33971 28.161 7.94933C28.1381 7.25013 28.0632 6.59413 27.9514 6.05449C27.8431 5.53213 27.6902 5.0659 27.4802 4.79105ZM23.0807 9.51196C24.0367 7.63523 25.3489 6.46401 27.0486 5.48871C27.1169 5.6616 27.1864 5.89756 27.248 6.19492C27.3504 6.68928 27.4217 7.30515 27.4436 7.97197C27.4875 9.31363 27.3295 10.811 26.8618 11.913C25.8953 14.1902 24.2237 15.8767 22.224 16.3875C22.0485 14.9238 21.9828 13.7908 22.0831 12.765C22.191 11.6599 22.4932 10.6654 23.0807 9.51196Z" fill="black"/>
<path fill-rule="evenodd" clip-rule="evenodd" d="M33.6024 10.5937L33.4146 10.3479L33.141 10.4971C31.1691 11.5725 29.0108 13.9091 27.9277 16.0357C26.6897 18.4662 26.2009 20.9145 26.2009 23.6538V24.0696L26.6188 24.0013C30.573 23.3544 32.5577 20.9666 33.6466 18.401C34.171 17.1655 34.3285 15.4489 34.2832 13.96C34.2604 13.2103 34.1857 12.5038 34.0745 11.9266C34.0189 11.6382 33.9533 11.377 33.8782 11.1563C33.8051 10.9411 33.7156 10.7418 33.6024 10.5937ZM28.5697 16.3508C29.5379 14.4499 31.4251 12.3677 33.1687 11.299C33.1781 11.3242 33.1877 11.351 33.1974 11.3794C33.2593 11.5615 33.3177 11.7902 33.3692 12.0576C33.4723 12.5921 33.5439 13.2611 33.5658 13.981C33.6099 15.4313 33.4507 17.0305 32.984 18.13C32.0021 20.4435 30.2882 22.5385 26.9228 23.2286C26.9714 20.7532 27.4531 18.543 28.5697 16.3508Z" fill="black"/>
<path fill-rule="evenodd" clip-rule="evenodd" d="M9.67089 1.54158L9.312 1.54158V1.89388C9.312 3.6056 9.70361 4.96009 10.4278 6.02672C10.8209 6.60575 11.5265 7.0537 12.2219 7.38921C12.9289 7.73031 13.6803 7.98068 14.2216 8.14133L14.6843 8.27866V7.8041C14.6843 7.12151 14.6576 6.32585 14.5328 5.57442C14.4092 4.83007 14.1831 4.08784 13.7552 3.54296C13.452 3.15693 12.8257 2.66287 12.1031 2.26778C11.3788 1.87179 10.4971 1.54158 9.67089 1.54158ZM11.0251 5.63595C10.446 4.78299 10.0901 3.69016 10.0368 2.27193C10.5956 2.34733 11.2018 2.58153 11.7538 2.88335C12.4307 3.25342 12.9655 3.69145 13.1867 3.97317C13.5065 4.38037 13.7077 4.98514 13.8244 5.68779C13.9128 6.21994 13.9491 6.78473 13.9613 7.32053C13.52 7.17513 13.0154 6.98693 12.5385 6.75686C11.87 6.43431 11.3089 6.05401 11.0251 5.63595Z" fill="black"/>
<path fill-rule="evenodd" clip-rule="evenodd" d="M3.2928 11.2978L3.56953 11.128C4.4395 10.5943 5.69037 10.0061 7.00458 9.71044C8.31229 9.41625 9.74117 9.39945 10.9111 10.0885C11.8782 10.6581 12.5834 11.2777 13.1388 12.051C13.6909 12.8197 14.0828 13.7237 14.4461 14.8427L14.5569 15.1842L14.2073 15.2872C12.0228 15.9305 9.6232 15.7401 8.28597 15.2824C7.29201 14.9422 6.25532 14.3513 5.38677 13.6889C4.5248 13.0315 3.79033 12.2746 3.43874 11.5843L3.2928 11.2978ZM5.82715 13.1325C6.64748 13.7582 7.61631 14.307 8.52227 14.6171C9.6493 15.0028 11.7071 15.1901 13.6456 14.7086C13.3274 13.789 12.9899 13.0666 12.5521 12.457C12.0638 11.777 11.4384 11.2208 10.5418 10.6927C9.60054 10.1383 8.39053 10.1215 7.16491 10.3972C6.08635 10.6399 5.04083 11.0996 4.24701 11.5503C4.57637 12.0435 5.13562 12.6051 5.82715 13.1325Z" fill="black"/>
<path fill-rule="evenodd" clip-rule="evenodd" d="M15.9393 19.7483L15.9557 19.5713L15.8204 19.4531C14.7903 18.5543 13.3309 18.1249 11.8882 18.018C10.4421 17.9109 8.96136 18.1234 7.84867 18.5604C5.28675 19.5665 2.88605 21.103 0.73083 23.8535L0.333008 24.3612L0.982834 24.4192C3.29751 24.6256 7.23874 24.8733 9.96902 24.2032C11.2524 23.8883 12.6666 23.4107 13.795 22.7082C14.9202 22.0076 15.8193 21.0447 15.9393 19.7483ZM8.11528 19.2146C9.11372 18.8225 10.483 18.6205 11.8341 18.7206C13.1166 18.8156 14.3369 19.179 15.2014 19.8618C15.049 20.7643 14.386 21.5058 13.4106 22.1131C12.3751 22.7578 11.0449 23.2129 9.79493 23.5197C7.43455 24.0989 4.05827 23.9599 1.71383 23.7737C3.6712 21.4531 5.81999 20.116 8.11528 19.2146Z" fill="black"/>
<path fill-rule="evenodd" clip-rule="evenodd" d="M11.6651 25.7483L11.715 26.091C11.7746 26.5004 11.752 27.0746 11.6689 27.7179C11.585 28.3678 11.4361 29.1117 11.2298 29.87C10.82 31.3759 10.1708 32.9862 9.31723 34.029C8.41198 35.135 7.04137 36.0428 5.57803 36.7986C4.11008 37.5568 2.51692 38.1779 1.14413 38.6962L0.513704 38.9342L0.665596 38.2881C1.3113 35.5416 2.88128 32.4604 4.76278 30.4607C5.57479 29.5977 6.74989 28.4966 7.93899 27.5824C8.53357 27.1252 9.13765 26.7102 9.70615 26.3946C10.2683 26.0825 10.8237 25.8516 11.3152 25.7913L11.6651 25.7483ZM8.38157 28.1371C7.22662 29.025 6.07952 30.0998 5.29005 30.9388C3.64929 32.6826 2.23636 35.3262 1.53533 37.7915C2.73719 37.3293 4.03735 36.7982 5.2438 36.1751C6.67568 35.4355 7.94394 34.5819 8.7577 33.5877C9.51816 32.6586 10.1357 31.1604 10.5363 29.6882C10.7351 28.9575 10.8774 28.2448 10.9569 27.6293C11.0099 27.2183 11.0337 26.8605 11.0305 26.5739C10.7475 26.661 10.4208 26.8073 10.0595 27.0079C9.53243 27.3005 8.95902 27.6931 8.38157 28.1371Z" fill="black"/>
<path d="M19.7697 35.1709C19.8065 34.8187 19.8362 34.4632 19.8591 34.105C21.5363 34.3335 22.9855 34.8891 24.2787 35.7269C25.6159 36.5932 26.8308 37.7898 27.969 39.322C27.9558 39.9946 27.924 40.6398 27.8744 41.2588C26.5451 39.4169 25.0594 37.9031 23.3383 36.788C22.2301 36.0701 21.0444 35.5302 19.7697 35.1709Z" fill="black"/>
<path d="M19.3897 37.6569C19.2778 38.244 19.1558 38.8142 19.0242 39.3686C19.7916 39.6799 20.525 40.0634 21.2272 40.5183C23.4217 41.94 25.2335 44.0101 26.8263 46.582C26.9986 46.0852 27.1531 45.5615 27.2887 45.0097C25.6796 42.2058 23.9487 40.1631 21.9429 38.8636C21.1551 38.3533 20.3095 37.9477 19.3897 37.6569Z" fill="black"/>
<path d="M9.67086 55.5682C13.3327 51.8102 16.4695 47.7946 18.3572 41.7947C18.8716 42.0224 19.362 42.2895 19.8318 42.5939C21.8393 43.8945 23.6366 46.709 25.2669 49.7528C21.9274 54.7005 15.9228 55.5682 9.67086 55.5682Z" fill="black"/>
<path d="M25.6741 33.6514C23.9548 32.5374 22.0485 31.8521 19.9132 31.6049C19.7694 23.5055 16.7046 14.6594 14.3153 10.5978C17.6931 12.463 27.1731 26.8975 27.8264 35.0518C27.8353 35.1628 27.8438 35.2732 27.8519 35.383C27.1684 34.73 26.4449 34.1507 25.6741 33.6514Z" fill="black"/>
<path d="M32.4709 47.0715H26.982C27.4042 48.3149 28.2486 49.9728 29.5153 49.9728H29.9375C31.2042 49.9728 32.0486 48.3149 32.4709 47.0715Z" fill="#E42300"/>
</svg>
